<svg version="1.1" xmlns="http://www.w3.org/2000/svg" xmlns:xlink="http://www.w3.org/1999/xlink" x="0px" y="0px" viewBox="0 0 1000 1000" enable-background="new 0 0 1000 1000" xml:space="preserve">
<g><path d="M500,10C229.8,10,10,229.8,10,500c0,270.2,219.8,490,490,490s490-219.8,490-490C990,229.8,770.2,10,500,10z M500,950.8C251.4,950.8,49.2,748.6,49.2,500C49.2,251.5,251.4,49.2,500,49.2S950.8,251.5,950.8,500C950.8,748.6,748.6,950.8,500,950.8z"/><path d="M746.2,319.5c-4.6-4.6-12-4.6-16.6,0l-306,306L270.4,472.4c-4.6-4.6-12-4.6-16.6,0L237.1,489c-4.6,4.6-4.6,12.1,0,16.7L412,680.5c3.1,3.1,7.6,3.9,11.5,2.8c4,1.2,8.4,0.3,11.5-2.8l327.8-327.8c4.6-4.6,4.6-12.1,0-16.7L746.2,319.5z"/></g>
</svg>