<?xml version="1.0" encoding="utf-8"?>
<!-- Generator: Adobe Illustrator 18.1.1, SVG Export Plug-In . SVG Version: 6.00 Build 0)  -->
<svg version="1.1" id="Layer_1" xmlns="http://www.w3.org/2000/svg" xmlns:xlink="http://www.w3.org/1999/xlink" x="0px" y="0px"
	 viewBox="0 0 124 124" enable-background="new 0 0 124 124" xml:space="preserve">
<g>
	<path fill="#F2AA1D" d="M108.4,8.4c3.3,4.9,4.1,11.4,3.2,17.5c-0.4,3.9-3.7,7.2-6.9,9.3c-2.9,1.3-6.1,2.2-9.6,2.1c0,0-0.1,0-0.1,0
		c-5.6-5.5-9-11.9-9.7-19.6c-0.2-4.8,1.1-9,3.3-12.9c0.1,0,0.1,0,0.2-0.1C95.2,2.9,104.5,2.1,108.4,8.4"/>
	<path fill="#224186" d="M88.8,4.8c-3.2,5.2-4.3,12.6-2.2,18.8c1.5,4.9,3.8,8.7,7.4,12.6l1.2,1.1c0,0,0,0-0.1,0
		c-5.5-0.4-11-0.3-15.2-4.1c-3.7-3.3-3.9-8.8-3.8-11.7c0.8-8.3,5.2-14.2,12.6-16.6C88.7,4.8,88.7,4.8,88.8,4.8
		C88.8,4.8,88.8,4.8,88.8,4.8"/>
	<path fill="#E02128" d="M34.4,16.8c12.8-2.5,17.7,4.2,17.7,4.2c-4.5-1.1-9.9-2.1-14.3-0.3c3.7,3,6.5,6.8,6.5,11.5
		c-1.4-3-3.6-6.6-6.9-7.9c2,3.4,4,7.6,3.8,13.1c-1.8-4.6-3.7-9.3-8-10.6c0.5,2.5,1,5.3,1.1,8.2c-0.9-2.6-1.8-5.1-3.5-7.4
		c-0.6,2-1.4,4.1-2.6,5.9c0.3-1.7,0.2-3.7,0.1-5.5c-2.2-1.2-5-1.4-7.8-1.4c1.9-1.3,4.8-1.9,7.6-2.1c-1.5-2.1-4.4-2-6.8-2.5
		c-3.8-0.4-7.2,0.7-10.5,1.7c4-4.2,10.1-6.1,16.4-5.2c-0.4-2.8-2.5-5.6-4.6-7.6c2.3,1,4.9,2.9,6.4,5.4c0.7-4.5,1.2-9.4-1.5-13.2
		C31,6.9,33.3,11.8,34.4,16.8"/>
	<path fill="#FFFFFF" d="M101.6,85.4c-0.8-1.1-1.2-2.5-1.2-4.1l0-29.5h0c0-1.5,0.6-3,1.7-4.3c1.1-1.2,2.7-2.2,4.6-2.8l0.1,0
		c1.7-0.4,3.2-0.6,4.6-0.6c3,0,5.3,0.9,6.9,2.2c1.6,1.3,2.6,3.1,3.1,4.8c0.4,1.2,0.5,2.4,0.5,3.4c0,3.6-4.1,3.6-7.8,3.6
		c-1.4,0-2.7,0-3.6,0.2c-2.3,0.6-2.7,1.6-2.7,1.8l0,21.1c0,0.3,0,0.6,0,0.9c0,1.5,0,3.2,0.8,4.2c0.4,0.5,1.1,1,1.9,1.3
		c0.8,0.3,1.7,0.5,2.7,0.5c1.4,0,2.4-0.1,3.4-0.5c1.1-0.4,2.2-1.1,3.8-2.3c0.2-0.1,0.4-0.2,0.5-0.3c0.3-0.1,0.5,0,0.7,0.2
		c0.2,0.2,0.3,0.4,0.2,0.7c0,0.1-0.1,0.3-0.3,0.5l0,0c-0.9,0.8-1.9,1.7-3.3,2.3c-1.3,0.7-2.9,1.1-4.8,1.3c-1.4,0.1-2.9,0-4.3-0.3
		c-1.4-0.3-2.7-0.7-3.9-1.3l0,0C103.7,87.7,102.5,86.7,101.6,85.4 M114,47.2c0,0-1-1-3-1c-0.9,0-1.6,0.3-2.1,0.7
		c-0.6,0.5-1,1.2-1.1,2c0,0.3,0,3,0,5.5c0,0.9,0,1.7,0,2.4c0.6-0.3,1.5-0.6,2.7-0.8c0.6-0.1,1.3-0.2,1.9-0.2c2-0.2,3.8-0.3,3.8-2.6
		c0-0.9,0-2-0.3-3.1C115.6,49,115,48,114,47.2L114,47.2L114,47.2z"/>
	<path fill="#FFFFFF" d="M2.5,53.2c-0.6-1.5-0.6-2.8,0-4C3,47.9,4.2,46.8,5.7,46c1.1-0.7,2.4-1.2,3.7-1.5c1.5-0.3,3.1-0.4,4.5-0.3
		c1.9,0.1,3.5,0.6,4.8,1.3c1.3,0.7,2.4,1.5,3.3,2.3l0,0c0.2,0.2,0.3,0.3,0.3,0.5c0.1,0.3,0,0.5-0.2,0.7c-0.2,0.2-0.4,0.2-0.7,0.2
		c-0.2,0-0.3-0.1-0.5-0.2c-1.6-1.2-2.7-1.9-3.8-2.3c-1-0.4-2-0.5-3.4-0.5c-1.1,0-2.1,0.2-2.9,0.5c-0.8,0.3-1.5,0.7-1.7,1.2l0,0
		c-0.4,0.6-0.5,1.2-0.5,1.7c0,0.6,0.2,1.1,0.5,1.6l0,0l12.9,30.1h0c0.6,1.5,0.6,2.8,0,4c-0.6,1.3-1.8,2.4-3.2,3.2
		c-1.1,0.7-2.4,1.2-3.7,1.5c-1.5,0.3-3.1,0.4-4.5,0.3c-1.9-0.1-3.5-0.6-4.8-1.3c-1.3-0.7-2.4-1.5-3.3-2.3l0,0
		c-0.2-0.2-0.3-0.3-0.3-0.5c-0.1-0.3,0-0.5,0.2-0.7h0c0.2-0.2,0.4-0.2,0.7-0.2c0.2,0,0.3,0.1,0.5,0.3c1.6,1.2,2.7,1.9,3.8,2.3
		c1,0.4,2,0.5,3.4,0.5c1.1,0,2.1-0.2,2.9-0.5c0.8-0.3,1.5-0.7,1.7-1.2l0,0c0.4-0.6,0.5-1.2,0.5-1.7c0-0.6-0.2-1.1-0.5-1.6l0,0
		L2.5,53.2L2.5,53.2z"/>
	<path fill="#FFFFFF" d="M63.1,87.5c1,0,2.2-0.4,3.3-1.4l0-33.2c-1.1,0.5-2.4,0.8-3.7,1.1c-1.8,0.4-3.5,0.8-3.5,1.5h0l0,28.8h0
		c0,0.7,0.5,1.5,1.2,2.1c0.4,0.3,0.8,0.5,1.3,0.7C62,87.4,62.5,87.5,63.1,87.5 M73.5,53.7l0,35.4V90l-0.9-0.2L68.1,89
		c-1,0.5-2.4,0.9-3.9,1.1c-1.6,0.2-3.3,0.3-4.8,0.1l0,0c-1.7-0.3-3.7-1-5.2-2.1c-1.2-0.9-2-2.1-2-3.6c0-1.1,0-27.4,0-27.4h0
		c0-1.1,0.3-1.9,0.8-2.5c0.5-0.6,1.2-1,2-1.3l0,0c1.5-0.5,3.3-0.9,5.1-1.2c3.4-0.6,6.8-1.2,6.8-3.2c-0.1-0.6-0.3-1.1-0.8-1.5
		c-0.5-0.4-1.4-0.8-2.7-0.9l0,0c-0.8-0.1-1.4-0.1-2,0c-0.6,0.1-1.1,0.2-1.6,0.4c-0.3,0.2-0.6,0.4-0.9,0.7c-0.3,0.3-0.4,0.6-0.5,0.9
		l-0.2,0.6L57.4,49l-3.2-0.5l-1.7-0.2l1.3-1c1.4-1.1,2.8-1.9,4.4-2.4c1.6-0.5,3.5-0.7,5.9-0.5h0c2.4,0.3,4.1,0.8,5.4,1.5
		c1.4,0.7,2.2,1.5,2.8,2.4l0,0c0.5,0.9,0.8,1.8,1,2.7C73.5,51.9,73.5,52.8,73.5,53.7L73.5,53.7z"/>
	<path fill="#FFFFFF" d="M78.2,85.4c-0.8-1.1-1.2-2.5-1.2-4h0V53h0c0-1.6,0.5-2.9,1.2-4c0.9-1.3,2.2-2.3,3.6-3.1l0,0
		c1.2-0.6,2.5-1.1,3.9-1.3c1.4-0.3,2.9-0.4,4.3-0.3c1.9,0.1,3.5,0.6,4.8,1.3c1.3,0.7,2.4,1.5,3.3,2.3l0,0c0.2,0.2,0.3,0.3,0.3,0.5
		c0.1,0.3,0,0.5-0.2,0.7c-0.2,0.2-0.4,0.2-0.7,0.2c-0.1,0-0.3-0.1-0.5-0.2l0,0c-1.6-1.2-2.7-1.9-3.8-2.3c-1-0.4-2-0.5-3.4-0.5
		c-1,0-2,0.2-2.8,0.5c-0.9,0.3-1.6,0.8-2,1.3l0,0c-0.8,1-0.8,2.8-0.8,4.4c0,0.2,0,0.5,0,0.7l0,0v28.5l0,0c0,0.2,0,0.4,0,0.7
		c0,1.5,0,3.3,0.8,4.4c0.4,0.5,1.1,1,2,1.3c0.8,0.3,1.7,0.5,2.8,0.5c1.4,0,2.4-0.1,3.4-0.5c1.1-0.4,2.2-1.1,3.8-2.3
		c0.2-0.1,0.4-0.2,0.5-0.3c0.3-0.1,0.5,0,0.7,0.2c0.2,0.2,0.3,0.4,0.2,0.7c0,0.1-0.1,0.3-0.3,0.5l0,0c-0.9,0.8-1.9,1.7-3.3,2.3
		c-1.3,0.7-2.9,1.1-4.8,1.3c-1.4,0.1-2.9,0-4.3-0.3c-1.4-0.3-2.7-0.7-3.9-1.3l0,0C80.4,87.7,79.1,86.7,78.2,85.4"/>
	<path fill="#FFFFFF" d="M34.6,93H44c3.5,0,5.7,2.1,5.7,6.4c0,2.6-1,4.5-2.8,5.5v0.1c2.4,0.7,3.6,3.1,3.6,6.6c0,4-2.1,7.2-7.1,7.2
		h-8.9V93z M37.9,103.8h5.5c1.6,0,2.8-1.3,2.8-3.6c0-2.6-1-3.5-2.8-3.5h-5.5V103.8z M37.9,115.1h6c2.1,0,3.2-1.5,3.2-4.1
		c0-2.5-1.2-4-3.2-4h-6V115.1z"/>
	<g>
		<polygon fill="#FFFFFF" points="103.6,118.6 102,118.6 90.6,96.4 90.6,118.6 89,118.6 89,93 90.6,93 102.1,115.1 102.1,93 
			103.6,93 		"/>
		<polygon fill="#FFFFFF" points="113.6,118.6 112.1,118.6 112.1,107.8 104.5,93 106.3,93 112.9,105.8 119.5,93 121.2,93 
			113.6,107.8 		"/>
	</g>
	<g>
		<path fill="#FFFFFF" d="M51.6,93h3.1v25.7h-3.1V93z"/>
	</g>
	<g>
		<path fill="#FFFFFF" d="M32.1,92.8h-6.8l0,26.8v1.2l1.2-0.6c0,0,3.8-1.9,4.7-3c1-1.1,0.9-3,0.9-3.1L32.1,92.8z"/>
		<path fill="#FFFFFF" d="M48.8,51.6c0-1.9-0.8-3.4-1.8-4.5c-1.5-1.6-3.6-2.3-4.9-2.5c-2-0.3-3.9-0.3-5.7,0
			c-1.9,0.4-3.8,1.1-5.5,2.1c-2.5,1.4-5,2.2-5,2.2L25.3,49v0.5l0,41.4h6.8l0-2.2c2.2,1.1,4.6,1.6,6.9,1.6v0c1.6,0,3.3-0.3,4.7-0.8
			c1.4-0.6,2.7-1.4,3.6-2.5c1-1.2,1.5-2.7,1.5-4.5h0L48.8,51.6z M41.5,84.5c-0.1,0.9-0.5,1.5-1.1,2c-0.7,0.6-1.7,0.9-2.7,1
			c-1.3,0.1-2.3,0-3.2-0.3c-0.9-0.3-1.6-0.8-2.3-1.3l-0.2-0.2l-0.1-36.7c2-1.6,4.3-2.2,6.2-2.2c0.7,0,1.3,0.1,1.8,0.2
			c0.5,0.1,0.9,0.3,1.1,0.6c0.2,0.2,0.3,0.4,0.3,0.6C41.6,56.1,41.5,83.1,41.5,84.5z"/>
	</g>
	<path fill="#FFFFFF" d="M56.8,93.1h12.8v3.4l-8.9,18.3h8.5v3.9H56.5V115l8.9-18.1h-8.6V93.1z"/>
	<path fill="#FFFFFF" d="M79.6,93h-3.4l-5.9,21.8v3.8h2.3l1.7-6.8h7.3l1.7,6.8h3.4L79.6,93z M75.1,108.5l2.8-11h0.1l2.7,11H75.1z"/>
</g>
</svg>
